<mxfile host="app.diagrams.net" agent="Mozilla/5.0 (Windows NT 10.0; Win64; x64) AppleWebKit/537.36 (KHTML, like Gecko) Chrome/135.0.0.0 Safari/537.36" version="26.2.14">
  <diagram name="第 1 页" id="7WTzuipDIQhC7smeBhwV">
    <mxGraphModel dx="1042" dy="535" grid="1" gridSize="10" guides="1" tooltips="1" connect="1" arrows="1" fold="1" page="1" pageScale="1" pageWidth="827" pageHeight="1169" math="0" shadow="0">
      <root>
        <mxCell id="0" />
        <mxCell id="1" parent="0" />
        <mxCell id="VAnJiJQfd62OOGLLckr2-10" value="" style="rounded=0;whiteSpace=wrap;html=1;dashed=1;dashPattern=8 8;" vertex="1" parent="1">
          <mxGeometry x="375" y="80" width="270" height="350" as="geometry" />
        </mxCell>
        <mxCell id="VAnJiJQfd62OOGLLckr2-1" value="专业直播声卡" style="rounded=0;whiteSpace=wrap;html=1;" vertex="1" parent="1">
          <mxGeometry x="450" y="100" width="120" height="60" as="geometry" />
        </mxCell>
        <mxCell id="VAnJiJQfd62OOGLLckr2-16" style="edgeStyle=orthogonalEdgeStyle;rounded=0;orthogonalLoop=1;jettySize=auto;html=1;exitX=0.5;exitY=0;exitDx=0;exitDy=0;entryX=0.5;entryY=1;entryDx=0;entryDy=0;" edge="1" parent="1" source="VAnJiJQfd62OOGLLckr2-3" target="VAnJiJQfd62OOGLLckr2-13">
          <mxGeometry relative="1" as="geometry" />
        </mxCell>
        <mxCell id="VAnJiJQfd62OOGLLckr2-21" style="edgeStyle=orthogonalEdgeStyle;rounded=0;orthogonalLoop=1;jettySize=auto;html=1;exitX=0.5;exitY=1;exitDx=0;exitDy=0;" edge="1" parent="1" source="VAnJiJQfd62OOGLLckr2-3" target="VAnJiJQfd62OOGLLckr2-20">
          <mxGeometry relative="1" as="geometry" />
        </mxCell>
        <mxCell id="VAnJiJQfd62OOGLLckr2-3" value="机架控制" style="rounded=0;whiteSpace=wrap;html=1;" vertex="1" parent="1">
          <mxGeometry x="18" y="200" width="170" height="80" as="geometry" />
        </mxCell>
        <mxCell id="VAnJiJQfd62OOGLLckr2-5" value="Loopback 伴奏输入(网易云，k歌，酷狗)" style="rounded=0;whiteSpace=wrap;html=1;" vertex="1" parent="1">
          <mxGeometry x="450" y="180" width="120" height="60" as="geometry" />
        </mxCell>
        <mxCell id="VAnJiJQfd62OOGLLckr2-6" value="loopback-Studio one输出(在机架控制的音频设置中使用聚合设备后的输出,取消下面勾选)" style="rounded=0;whiteSpace=wrap;html=1;" vertex="1" parent="1">
          <mxGeometry x="450" y="250" width="120" height="80" as="geometry" />
        </mxCell>
        <mxCell id="VAnJiJQfd62OOGLLckr2-7" value="loopback3(Pass_Thru)" style="rounded=0;whiteSpace=wrap;html=1;" vertex="1" parent="1">
          <mxGeometry x="450" y="350" width="120" height="60" as="geometry" />
        </mxCell>
        <mxCell id="VAnJiJQfd62OOGLLckr2-12" value="MIDI聚合音频设备" style="text;html=1;align=center;verticalAlign=middle;resizable=0;points=[];autosize=1;strokeColor=none;fillColor=none;" vertex="1" parent="1">
          <mxGeometry x="430" y="40" width="120" height="30" as="geometry" />
        </mxCell>
        <mxCell id="VAnJiJQfd62OOGLLckr2-13" value="音频设置" style="rounded=0;whiteSpace=wrap;html=1;" vertex="1" parent="1">
          <mxGeometry x="43" y="60" width="120" height="60" as="geometry" />
        </mxCell>
        <mxCell id="VAnJiJQfd62OOGLLckr2-19" value="录制设备：MIDI聚合设备&lt;div&gt;回放设备：MIDI聚合设备&lt;/div&gt;&lt;div&gt;采样频率和缓冲区大小:128&lt;/div&gt;" style="text;html=1;align=center;verticalAlign=middle;resizable=0;points=[];autosize=1;strokeColor=none;fillColor=none;" vertex="1" parent="1">
          <mxGeometry x="18" width="170" height="60" as="geometry" />
        </mxCell>
        <mxCell id="VAnJiJQfd62OOGLLckr2-20" value="音频I/O" style="whiteSpace=wrap;html=1;" vertex="1" parent="1">
          <mxGeometry x="43" y="340" width="120" height="60" as="geometry" />
        </mxCell>
        <mxCell id="VAnJiJQfd62OOGLLckr2-22" value="输入：麦克风总输入&lt;div&gt;&lt;br&gt;&lt;/div&gt;" style="text;html=1;align=center;verticalAlign=middle;resizable=0;points=[];autosize=1;strokeColor=none;fillColor=none;" vertex="1" parent="1">
          <mxGeometry x="150" y="277" width="130" height="40" as="geometry" />
        </mxCell>
        <mxCell id="VAnJiJQfd62OOGLLckr2-23" value="1" style="text;html=1;align=center;verticalAlign=middle;resizable=0;points=[];autosize=1;strokeColor=none;fillColor=none;" vertex="1" parent="1">
          <mxGeometry x="325" y="112" width="30" height="30" as="geometry" />
        </mxCell>
        <mxCell id="VAnJiJQfd62OOGLLckr2-24" value="2" style="text;html=1;align=center;verticalAlign=middle;resizable=0;points=[];autosize=1;strokeColor=none;fillColor=none;" vertex="1" parent="1">
          <mxGeometry x="325" y="142" width="30" height="30" as="geometry" />
        </mxCell>
        <mxCell id="VAnJiJQfd62OOGLLckr2-43" style="edgeStyle=orthogonalEdgeStyle;rounded=0;orthogonalLoop=1;jettySize=auto;html=1;entryX=0.5;entryY=0;entryDx=0;entryDy=0;" edge="1" parent="1" source="VAnJiJQfd62OOGLLckr2-25" target="VAnJiJQfd62OOGLLckr2-39">
          <mxGeometry relative="1" as="geometry" />
        </mxCell>
        <mxCell id="VAnJiJQfd62OOGLLckr2-25" value="3" style="text;html=1;align=center;verticalAlign=middle;resizable=0;points=[];autosize=1;strokeColor=none;fillColor=none;" vertex="1" parent="1">
          <mxGeometry x="325" y="182" width="30" height="30" as="geometry" />
        </mxCell>
        <mxCell id="VAnJiJQfd62OOGLLckr2-28" value="4" style="text;html=1;align=center;verticalAlign=middle;resizable=0;points=[];autosize=1;strokeColor=none;fillColor=none;" vertex="1" parent="1">
          <mxGeometry x="325" y="212" width="30" height="30" as="geometry" />
        </mxCell>
        <mxCell id="VAnJiJQfd62OOGLLckr2-29" value="5" style="text;html=1;align=center;verticalAlign=middle;resizable=0;points=[];autosize=1;strokeColor=none;fillColor=none;" vertex="1" parent="1">
          <mxGeometry x="325" y="247" width="30" height="30" as="geometry" />
        </mxCell>
        <mxCell id="VAnJiJQfd62OOGLLckr2-32" value="6" style="text;html=1;align=center;verticalAlign=middle;resizable=0;points=[];autosize=1;strokeColor=none;fillColor=none;" vertex="1" parent="1">
          <mxGeometry x="325" y="282" width="30" height="30" as="geometry" />
        </mxCell>
        <mxCell id="VAnJiJQfd62OOGLLckr2-33" value="7" style="text;html=1;align=center;verticalAlign=middle;resizable=0;points=[];autosize=1;strokeColor=none;fillColor=none;" vertex="1" parent="1">
          <mxGeometry x="325" y="322" width="30" height="30" as="geometry" />
        </mxCell>
        <mxCell id="VAnJiJQfd62OOGLLckr2-34" value="8" style="text;html=1;align=center;verticalAlign=middle;resizable=0;points=[];autosize=1;strokeColor=none;fillColor=none;" vertex="1" parent="1">
          <mxGeometry x="325" y="372" width="30" height="30" as="geometry" />
        </mxCell>
        <mxCell id="VAnJiJQfd62OOGLLckr2-35" value="1" style="text;html=1;align=center;verticalAlign=middle;resizable=0;points=[];autosize=1;strokeColor=none;fillColor=none;" vertex="1" parent="1">
          <mxGeometry x="655" y="100" width="30" height="30" as="geometry" />
        </mxCell>
        <mxCell id="VAnJiJQfd62OOGLLckr2-36" value="2" style="text;html=1;align=center;verticalAlign=middle;resizable=0;points=[];autosize=1;strokeColor=none;fillColor=none;" vertex="1" parent="1">
          <mxGeometry x="655" y="142" width="30" height="30" as="geometry" />
        </mxCell>
        <mxCell id="VAnJiJQfd62OOGLLckr2-37" value="3" style="text;html=1;align=center;verticalAlign=middle;resizable=0;points=[];autosize=1;strokeColor=none;fillColor=none;" vertex="1" parent="1">
          <mxGeometry x="655" y="345" width="30" height="30" as="geometry" />
        </mxCell>
        <mxCell id="VAnJiJQfd62OOGLLckr2-38" value="4" style="text;html=1;align=center;verticalAlign=middle;resizable=0;points=[];autosize=1;strokeColor=none;fillColor=none;" vertex="1" parent="1">
          <mxGeometry x="655" y="399" width="30" height="30" as="geometry" />
        </mxCell>
        <mxCell id="VAnJiJQfd62OOGLLckr2-39" value="&lt;span style=&quot;color: rgb(0, 0, 0); font-family: Helvetica; font-size: 12px; font-style: normal; font-variant-ligatures: normal; font-variant-caps: normal; font-weight: 400; letter-spacing: normal; orphans: 2; text-align: center; text-indent: 0px; text-transform: none; widows: 2; word-spacing: 0px; -webkit-text-stroke-width: 0px; white-space: nowrap; background-color: rgb(236, 236, 236); text-decoration-thickness: initial; text-decoration-style: initial; text-decoration-color: initial; display: inline !important; float: none;&quot;&gt;输入：伴奏总输入&lt;/span&gt;" style="text;whiteSpace=wrap;html=1;" vertex="1" parent="1">
          <mxGeometry x="163" y="316" width="130" height="42" as="geometry" />
        </mxCell>
        <mxCell id="VAnJiJQfd62OOGLLckr2-40" value="&lt;span style=&quot;color: rgb(0, 0, 0); font-family: Helvetica; font-size: 12px; font-style: normal; font-variant-ligatures: normal; font-variant-caps: normal; font-weight: 400; letter-spacing: normal; orphans: 2; text-align: center; text-indent: 0px; text-transform: none; widows: 2; word-spacing: 0px; -webkit-text-stroke-width: 0px; white-space: nowrap; background-color: rgb(236, 236, 236); text-decoration-thickness: initial; text-decoration-style: initial; text-decoration-color: initial; float: none; display: inline !important;&quot;&gt;输出：总输出&lt;/span&gt;" style="text;whiteSpace=wrap;html=1;" vertex="1" parent="1">
          <mxGeometry x="180" y="420" width="90" height="40" as="geometry" />
        </mxCell>
        <mxCell id="VAnJiJQfd62OOGLLckr2-42" style="edgeStyle=orthogonalEdgeStyle;rounded=0;orthogonalLoop=1;jettySize=auto;html=1;entryX=0.997;entryY=0.33;entryDx=0;entryDy=0;entryPerimeter=0;" edge="1" parent="1" source="VAnJiJQfd62OOGLLckr2-23" target="VAnJiJQfd62OOGLLckr2-22">
          <mxGeometry relative="1" as="geometry" />
        </mxCell>
        <mxCell id="VAnJiJQfd62OOGLLckr2-44" style="edgeStyle=orthogonalEdgeStyle;rounded=0;orthogonalLoop=1;jettySize=auto;html=1;exitX=1;exitY=0.5;exitDx=0;exitDy=0;entryX=1.033;entryY=0.627;entryDx=0;entryDy=0;entryPerimeter=0;" edge="1" parent="1" source="VAnJiJQfd62OOGLLckr2-40" target="VAnJiJQfd62OOGLLckr2-35">
          <mxGeometry relative="1" as="geometry" />
        </mxCell>
        <mxCell id="VAnJiJQfd62OOGLLckr2-45" value="直播APP" style="rounded=0;whiteSpace=wrap;html=1;" vertex="1" parent="1">
          <mxGeometry x="790" y="232" width="120" height="60" as="geometry" />
        </mxCell>
        <mxCell id="VAnJiJQfd62OOGLLckr2-48" style="edgeStyle=orthogonalEdgeStyle;rounded=0;orthogonalLoop=1;jettySize=auto;html=1;entryX=0.58;entryY=1.02;entryDx=0;entryDy=0;entryPerimeter=0;" edge="1" parent="1" source="VAnJiJQfd62OOGLLckr2-37" target="VAnJiJQfd62OOGLLckr2-45">
          <mxGeometry relative="1" as="geometry" />
        </mxCell>
        <mxCell id="VAnJiJQfd62OOGLLckr2-49" value="单独的loopback1，不经机架的原声" style="text;html=1;align=center;verticalAlign=middle;resizable=0;points=[];autosize=1;strokeColor=none;fillColor=none;" vertex="1" parent="1">
          <mxGeometry x="730" y="130" width="210" height="30" as="geometry" />
        </mxCell>
        <mxCell id="VAnJiJQfd62OOGLLckr2-50" value="单独的声卡输出，经过机架处理" style="text;html=1;align=center;verticalAlign=middle;resizable=0;points=[];autosize=1;strokeColor=none;fillColor=none;" vertex="1" parent="1">
          <mxGeometry x="740" y="152" width="190" height="30" as="geometry" />
        </mxCell>
        <mxCell id="VAnJiJQfd62OOGLLckr2-51" value="聚合音频设备的声卡输出或pass_thru输出" style="text;html=1;align=center;verticalAlign=middle;resizable=0;points=[];autosize=1;strokeColor=none;fillColor=none;" vertex="1" parent="1">
          <mxGeometry x="730" y="180" width="240" height="30" as="geometry" />
        </mxCell>
        <mxCell id="VAnJiJQfd62OOGLLckr2-55" value="" style="edgeStyle=orthogonalEdgeStyle;rounded=0;orthogonalLoop=1;jettySize=auto;html=1;" edge="1" parent="1" source="VAnJiJQfd62OOGLLckr2-52" target="VAnJiJQfd62OOGLLckr2-54">
          <mxGeometry relative="1" as="geometry" />
        </mxCell>
        <mxCell id="VAnJiJQfd62OOGLLckr2-52" value="苹果系统声音" style="rounded=0;whiteSpace=wrap;html=1;" vertex="1" parent="1">
          <mxGeometry x="414" y="480" width="120" height="60" as="geometry" />
        </mxCell>
        <mxCell id="VAnJiJQfd62OOGLLckr2-53" value="输入studio one输出" style="rounded=1;whiteSpace=wrap;html=1;" vertex="1" parent="1">
          <mxGeometry x="300" y="480" width="120" height="60" as="geometry" />
        </mxCell>
        <mxCell id="VAnJiJQfd62OOGLLckr2-54" value="输出是声卡" style="whiteSpace=wrap;html=1;rounded=0;" vertex="1" parent="1">
          <mxGeometry x="614" y="480" width="120" height="60" as="geometry" />
        </mxCell>
      </root>
    </mxGraphModel>
  </diagram>
</mxfile>
